<?xml version="1.0" encoding="UTF-8"?>
<svg xmlns="http://www.w3.org/2000/svg" width="227" height="58" viewBox="0 0 227 58" fill="none">
  <path d="M24.5 15C27.5376 15 30 12.5376 30 9.5C30 6.46243 27.5376 4 24.5 4C21.4624 4 19 6.46243 19 9.5C19 12.5376 21.4624 15 24.5 15Z" fill="#707E8E"></path>
  <path d="M36.5 9C38.9853 9 41 6.98528 41 4.5C41 2.01472 38.9853 0 36.5 0C34.0147 0 32 2.01472 32 4.5C32 6.98528 34.0147 9 36.5 9Z" fill="#707E8E"></path>
  <path d="M48 6C49.6569 6 51 4.88071 51 3.5C51 2.11929 49.6569 1 48 1C46.3431 1 45 2.11929 45 3.5C45 4.88071 46.3431 6 48 6Z" fill="#707E8E"></path>
  <path d="M56 9C57.1046 9 58 8.10457 58 7C58 5.89543 57.1046 5 56 5C54.8954 5 54 5.89543 54 7C54 8.10457 54.8954 9 56 9Z" fill="#707E8E"></path>
  <path d="M62.5 14C63.3284 14 64 13.3284 64 12.5C64 11.6716 63.3284 11 62.5 11C61.6716 11 61 11.6716 61 12.5C61 13.3284 61.6716 14 62.5 14Z" fill="#707E8E"></path>
  <path d="M31.4209 33.2988C31.4209 34.7799 31.25 36.2122 30.9082 37.5957C30.5664 38.9629 30.07 40.2487 29.4189 41.4531C28.7842 42.6576 28.0029 43.7643 27.0752 44.7734C26.1637 45.7663 25.1302 46.6208 23.9746 47.3369C22.8353 48.0531 21.5902 48.6146 20.2393 49.0215C18.8883 49.4121 17.4561 49.6074 15.9424 49.6074C14.4775 49.6074 13.0778 49.4202 11.7432 49.0459C10.4248 48.6715 9.18783 48.1507 8.03223 47.4834C6.87663 46.7998 5.82682 45.986 4.88281 45.042C3.95508 44.0817 3.15755 43.0238 2.49023 41.8682C1.83919 40.6963 1.3265 39.443 0.952148 38.1084C0.594076 36.7738 0.415039 35.3822 0.415039 33.9336C0.415039 32.5176 0.585938 31.1341 0.927734 29.7832C1.26953 28.416 1.75781 27.1302 2.39258 25.9258C3.04362 24.7214 3.82487 23.6146 4.73633 22.6055C5.64779 21.5964 6.66504 20.7256 7.78809 19.9932C8.92741 19.2607 10.1562 18.6911 11.4746 18.2842C12.793 17.8773 14.1846 17.6738 15.6494 17.6738C18.0094 17.6738 20.1579 18.04 22.0947 18.7725C24.0479 19.5049 25.708 20.5547 27.0752 21.9219C28.4587 23.2728 29.5247 24.9167 30.2734 26.8535C31.0384 28.7741 31.4209 30.9225 31.4209 33.2988ZM20.5811 33.9336C20.5811 33.2337 20.4753 32.5583 20.2637 31.9072C20.0684 31.2399 19.7754 30.654 19.3848 30.1494C18.9941 29.6286 18.5059 29.2135 17.9199 28.9043C17.3503 28.5788 16.6911 28.416 15.9424 28.416C15.1774 28.416 14.4938 28.5544 13.8916 28.8311C13.2894 29.1077 12.7686 29.4902 12.3291 29.9785C11.9059 30.4505 11.5804 31.012 11.3525 31.6631C11.1247 32.2979 11.0107 32.9733 11.0107 33.6895C11.0107 34.373 11.1084 35.0566 11.3037 35.7402C11.499 36.4238 11.792 37.0423 12.1826 37.5957C12.5732 38.1491 13.0534 38.5967 13.623 38.9385C14.209 39.2803 14.8844 39.4512 15.6494 39.4512C16.4144 39.4512 17.098 39.3047 17.7002 39.0117C18.3187 38.7025 18.8395 38.2956 19.2627 37.791C19.6859 37.2702 20.0114 36.6761 20.2393 36.0088C20.4671 35.3415 20.5811 34.6497 20.5811 33.9336ZM82.6172 39.5C82.6172 41.7298 82.2266 43.6585 81.4453 45.2861C80.6803 46.8975 79.6224 48.2321 78.2715 49.29C76.9368 50.3317 75.3662 51.1048 73.5596 51.6094C71.7692 52.0977 69.8405 52.3418 67.7734 52.3418C66.9759 52.3418 66.097 52.236 65.1367 52.0244C64.1927 51.8128 63.2324 51.5524 62.2559 51.2432C61.2793 50.9176 60.3353 50.5758 59.4238 50.2178C58.5286 49.8434 57.7311 49.4935 57.0312 49.168L58.1055 39.5977C59.4889 40.4277 61.0189 41.0625 62.6953 41.502C64.388 41.9251 66.0482 42.1367 67.6758 42.1367C67.985 42.1367 68.3594 42.1286 68.7988 42.1123C69.2383 42.0798 69.6533 42.0065 70.0439 41.8926C70.4508 41.7624 70.7926 41.5752 71.0693 41.3311C71.346 41.0869 71.4844 40.737 71.4844 40.2812C71.4844 39.972 71.3867 39.7116 71.1914 39.5C70.9961 39.2721 70.7438 39.0931 70.4346 38.9629C70.1253 38.8164 69.7754 38.7106 69.3848 38.6455C68.9941 38.5641 68.6117 38.5072 68.2373 38.4746C67.863 38.4421 67.513 38.4258 67.1875 38.4258C66.862 38.4258 66.6016 38.4258 66.4062 38.4258C65.0065 38.4258 63.7288 38.2061 62.5732 37.7666C61.4339 37.3271 60.4492 36.7087 59.6191 35.9111C58.8053 35.0973 58.1706 34.1208 57.7148 32.9814C57.2591 31.8258 57.0312 30.5482 57.0312 29.1484C57.0312 27.2279 57.4137 25.5107 58.1787 23.9971C58.96 22.4671 59.9935 21.1732 61.2793 20.1152C62.5814 19.041 64.0706 18.2191 65.7471 17.6494C67.4235 17.0798 69.1569 16.7949 70.9473 16.7949C71.7448 16.7949 72.5667 16.8275 73.4131 16.8926C74.2594 16.9414 75.0977 17.0391 75.9277 17.1855C76.7741 17.332 77.596 17.5192 78.3936 17.7471C79.1911 17.9749 79.9479 18.2598 80.6641 18.6016L79.7363 28.5137C78.6296 28.1393 77.4658 27.8301 76.2451 27.5859C75.0407 27.3255 73.8607 27.1953 72.7051 27.1953C72.4935 27.1953 72.2168 27.2035 71.875 27.2197C71.5495 27.2197 71.1995 27.2441 70.8252 27.293C70.4671 27.3255 70.1009 27.3825 69.7266 27.4639C69.3522 27.5452 69.0186 27.6592 68.7256 27.8057C68.4326 27.9359 68.1966 28.1149 68.0176 28.3428C67.8385 28.5706 67.7572 28.8392 67.7734 29.1484C67.7897 29.5065 67.9199 29.7832 68.1641 29.9785C68.4245 30.1738 68.75 30.3203 69.1406 30.418C69.5475 30.4993 69.987 30.54 70.459 30.54C70.9473 30.54 71.4274 30.5319 71.8994 30.5156C72.3714 30.4831 72.8109 30.4587 73.2178 30.4424C73.6247 30.4098 73.9583 30.4017 74.2188 30.418C75.5208 30.4993 76.6927 30.776 77.7344 31.248C78.776 31.7201 79.6549 32.3467 80.3711 33.1279C81.1035 33.9092 81.6569 34.8451 82.0312 35.9355C82.4219 37.0098 82.6172 38.1979 82.6172 39.5ZM127.612 18.1133L121.899 50.9746L108.032 51.2676L105.054 34.7148L102.075 49.998L88.208 50.4863L82.4463 19.0898L94.5557 18.0156L96.9971 37.3027L100.269 19.4805H109.79L113.599 37.5469L115.552 17.0391L127.612 18.1133ZM141.772 17.625L140.063 50.877L129.761 51.4141L128.784 18.3086L141.772 17.625ZM169.629 17.5762L169.385 27.9277L162.109 28.2207L161.23 50.877L150.928 51.4141L150 28.7578L142.725 29.1484L143.018 17.625L169.629 17.5762ZM193.628 18.6504L192.749 28.9531C192.277 28.8229 191.813 28.7334 191.357 28.6846C190.902 28.6357 190.438 28.6113 189.966 28.6113C188.81 28.6113 187.703 28.7578 186.646 29.0508C185.604 29.3438 184.676 29.7913 183.862 30.3936C183.065 30.9958 182.422 31.7607 181.934 32.6885C181.462 33.5999 181.226 34.6823 181.226 35.9355C181.226 36.847 181.356 37.6445 181.616 38.3281C181.893 38.9954 182.275 39.557 182.764 40.0127C183.268 40.4521 183.87 40.7858 184.57 41.0137C185.286 41.2415 186.076 41.3555 186.938 41.3555C187.541 41.3555 188.159 41.2985 188.794 41.1846C189.429 41.0544 190.063 40.8835 190.698 40.6719C191.333 40.4603 191.943 40.2161 192.529 39.9395C193.115 39.6628 193.66 39.3698 194.165 39.0605L193.774 50.5352C193.14 50.8607 192.456 51.1536 191.724 51.4141C190.991 51.6582 190.234 51.8698 189.453 52.0488C188.688 52.2441 187.915 52.3906 187.134 52.4883C186.369 52.5859 185.636 52.6348 184.937 52.6348C182.625 52.6348 180.518 52.2035 178.613 51.3408C176.725 50.4782 175.098 49.3063 173.73 47.8252C172.38 46.3278 171.33 44.5944 170.581 42.625C169.832 40.6556 169.458 38.556 169.458 36.3262C169.458 33.6569 169.832 31.1667 170.581 28.8555C171.346 26.5443 172.461 24.5423 173.926 22.8496C175.407 21.1406 177.23 19.806 179.395 18.8457C181.576 17.8691 184.074 17.3809 186.89 17.3809C188.013 17.3809 189.152 17.4704 190.308 17.6494C191.463 17.8285 192.57 18.1621 193.628 18.6504ZM224.951 51.0234L212.744 51.6094L212.646 41.3066H207.031L206.689 52H195.752L196.68 17.6738L208.301 18.2109L207.568 35.7402H212.988L213.037 17.3809L224.17 17.6738L224.951 51.0234Z" fill="#1C3350"></path>
  <path d="M55.4688 29.002C55.4688 30.304 55.2327 31.5492 54.7607 32.7373C54.2887 33.9092 53.6621 35.016 52.8809 36.0576C52.1159 37.083 51.237 38.0352 50.2441 38.9141C49.2676 39.7767 48.2747 40.5579 47.2656 41.2578H54.9805L54.3945 51.4141L31.543 50.6328V41.7461C32.4056 41.4531 33.3089 41.1032 34.2529 40.6963C35.2132 40.2731 36.1491 39.793 37.0605 39.2559C37.9883 38.7188 38.859 38.1165 39.6729 37.4492C40.5029 36.7819 41.2272 36.0576 41.8457 35.2764C42.4805 34.4788 42.9769 33.6162 43.335 32.6885C43.7093 31.7607 43.8965 30.7598 43.8965 29.6855C43.8965 29.0671 43.7826 28.5218 43.5547 28.0498C43.3431 27.5778 43.042 27.1872 42.6514 26.8779C42.2607 26.5524 41.805 26.3164 41.2842 26.1699C40.7796 26.0072 40.2344 25.9258 39.6484 25.9258C39.1602 25.9258 38.6637 25.9827 38.1592 26.0967C37.6546 26.1943 37.1582 26.3408 36.6699 26.5361C36.1816 26.7314 35.7178 26.9756 35.2783 27.2686C34.8551 27.5452 34.4727 27.8626 34.1309 28.2207L31.9824 18.6504C32.5846 18.0482 33.2764 17.5436 34.0576 17.1367C34.8389 16.7298 35.6608 16.4043 36.5234 16.1602C37.3861 15.8997 38.265 15.7126 39.1602 15.5986C40.0553 15.4847 40.9342 15.4277 41.7969 15.4277C43.7174 15.4277 45.5078 15.7777 47.168 16.4775C48.8281 17.1611 50.2686 18.1133 51.4893 19.334C52.7262 20.5384 53.6947 21.9707 54.3945 23.6309C55.1107 25.291 55.4688 27.0814 55.4688 29.002Z" fill="#FF611C"></path>
</svg>
